<svg width="1679" height="661" viewBox="0 0 1679 661" fill="none" xmlns="http://www.w3.org/2000/svg">
<path d="M277.366 559V449.909H306.983V492.523H346.187V449.909H375.804V559H346.187V516.386H306.983V559H277.366ZM429.71 560.491C420.832 560.491 413.233 558.734 406.912 555.218C400.591 551.667 395.743 546.731 392.37 540.41C388.996 534.053 387.309 526.685 387.309 518.304C387.309 509.923 388.996 502.572 392.37 496.251C395.743 489.895 400.591 484.959 406.912 481.443C413.233 477.892 420.832 476.116 429.71 476.116C438.588 476.116 446.187 477.892 452.508 481.443C458.829 484.959 463.677 489.895 467.05 496.251C470.424 502.572 472.111 509.923 472.111 518.304C472.111 526.685 470.424 534.053 467.05 540.41C463.677 546.731 458.829 551.667 452.508 555.218C446.187 558.734 438.588 560.491 429.71 560.491ZM429.923 538.759C432.409 538.759 434.557 537.924 436.368 536.255C438.179 534.586 439.582 532.207 440.576 529.117C441.571 526.028 442.068 522.352 442.068 518.091C442.068 513.794 441.571 510.119 440.576 507.065C439.582 503.975 438.179 501.596 436.368 499.927C434.557 498.258 432.409 497.423 429.923 497.423C427.295 497.423 425.04 498.258 423.158 499.927C421.276 501.596 419.838 503.975 418.843 507.065C417.849 510.119 417.352 513.794 417.352 518.091C417.352 522.352 417.849 526.028 418.843 529.117C419.838 532.207 421.276 534.586 423.158 536.255C425.04 537.924 427.295 538.759 429.923 538.759ZM484.042 559V477.182H511.954V492.736H512.807C514.511 487.622 517.423 483.574 521.542 480.591C525.662 477.608 530.562 476.116 536.244 476.116C541.997 476.116 546.951 477.643 551.106 480.697C555.26 483.716 557.764 487.729 558.616 492.736H559.468C560.853 487.729 563.801 483.716 568.311 480.697C572.821 477.643 578.112 476.116 584.184 476.116C592.032 476.116 598.389 478.638 603.254 483.68C608.155 488.723 610.605 495.435 610.605 503.815V559H581.201V511.273C581.201 507.686 580.296 504.881 578.485 502.857C576.674 500.797 574.241 499.767 571.187 499.767C568.169 499.767 565.772 500.797 563.996 502.857C562.256 504.881 561.386 507.686 561.386 511.273V559H533.261V511.273C533.261 507.686 532.356 504.881 530.544 502.857C528.733 500.797 526.301 499.767 523.247 499.767C521.223 499.767 519.483 500.229 518.027 501.152C516.571 502.075 515.434 503.407 514.618 505.147C513.836 506.852 513.446 508.893 513.446 511.273V559H484.042ZM664.311 560.491C655.576 560.491 648.047 558.822 641.726 555.484C635.441 552.111 630.593 547.281 627.184 540.996C623.811 534.675 622.124 527.111 622.124 518.304C622.124 509.852 623.828 502.466 627.237 496.145C630.647 489.824 635.458 484.906 641.673 481.39C647.887 477.874 655.22 476.116 663.672 476.116C669.851 476.116 675.444 477.075 680.451 478.993C685.458 480.911 689.737 483.698 693.289 487.356C696.84 490.978 699.574 495.381 701.492 500.566C703.409 505.751 704.368 511.592 704.368 518.091V524.909H631.286V508.716H677.309C677.273 506.372 676.669 504.312 675.497 502.537C674.361 500.726 672.816 499.323 670.863 498.329C668.946 497.299 666.762 496.784 664.311 496.784C661.932 496.784 659.748 497.299 657.759 498.329C655.771 499.323 654.173 500.708 652.965 502.484C651.794 504.259 651.172 506.337 651.101 508.716V526.188C651.101 528.815 651.652 531.159 652.752 533.219C653.853 535.278 655.434 536.894 657.493 538.066C659.553 539.238 662.039 539.824 664.951 539.824C666.975 539.824 668.821 539.54 670.49 538.972C672.195 538.403 673.651 537.587 674.858 536.521C676.066 535.42 676.953 534.107 677.522 532.58H704.368C703.445 538.261 701.261 543.197 697.816 547.388C694.372 551.543 689.809 554.774 684.127 557.082C678.48 559.355 671.875 560.491 664.311 560.491ZM717.219 559V542.807L753.014 499.98V499.554H718.497V477.182H787.744V495.08L755.145 536.202V536.628H789.023V559H717.219ZM806.135 559V542.807L841.93 499.98V499.554H807.413V477.182H876.66V495.08L844.061 536.202V536.628H877.939V559H806.135Z" fill="#6BC787"/>
<path d="M951.993 559H920.033L956.042 449.909H996.525L1032.53 559H1000.57L976.709 479.952H975.857L951.993 559ZM946.027 515.96H1006.11V538.119H946.027V515.96ZM1066.64 560.065C1060.81 560.065 1055.45 558.538 1050.55 555.484C1045.69 552.43 1041.78 547.796 1038.83 541.582C1035.92 535.367 1034.46 527.537 1034.46 518.091C1034.46 508.219 1035.99 500.193 1039.05 494.014C1042.13 487.835 1046.11 483.308 1050.98 480.431C1055.88 477.555 1061.03 476.116 1066.42 476.116C1070.47 476.116 1074.02 476.827 1077.08 478.247C1080.13 479.632 1082.69 481.496 1084.75 483.84C1086.81 486.148 1088.37 488.687 1089.44 491.457H1089.86V449.909H1119.27V559H1090.07V545.577H1089.44C1088.3 548.347 1086.67 550.832 1084.54 553.034C1082.44 555.2 1079.88 556.923 1076.86 558.201C1073.88 559.444 1070.47 560.065 1066.64 560.065ZM1077.5 537.48C1080.2 537.48 1082.51 536.699 1084.43 535.136C1086.38 533.538 1087.87 531.301 1088.9 528.425C1089.97 525.513 1090.5 522.068 1090.5 518.091C1090.5 514.043 1089.97 510.58 1088.9 507.704C1087.87 504.792 1086.38 502.572 1084.43 501.045C1082.51 499.483 1080.2 498.702 1077.5 498.702C1074.8 498.702 1072.5 499.483 1070.58 501.045C1068.7 502.572 1067.24 504.792 1066.21 507.704C1065.22 510.58 1064.72 514.043 1064.72 518.091C1064.72 522.139 1065.22 525.619 1066.21 528.531C1067.24 531.408 1068.7 533.627 1070.58 535.19C1072.5 536.717 1074.8 537.48 1077.5 537.48ZM1133.7 559V477.182H1161.61V492.736H1162.46C1164.17 487.622 1167.08 483.574 1171.2 480.591C1175.32 477.608 1180.22 476.116 1185.9 476.116C1191.66 476.116 1196.61 477.643 1200.76 480.697C1204.92 483.716 1207.42 487.729 1208.27 492.736H1209.13C1210.51 487.729 1213.46 483.716 1217.97 480.697C1222.48 477.643 1227.77 476.116 1233.84 476.116C1241.69 476.116 1248.05 478.638 1252.91 483.68C1257.81 488.723 1260.26 495.435 1260.26 503.815V559H1230.86V511.273C1230.86 507.686 1229.95 504.881 1228.14 502.857C1226.33 500.797 1223.9 499.767 1220.85 499.767C1217.83 499.767 1215.43 500.797 1213.65 502.857C1211.91 504.881 1211.04 507.686 1211.04 511.273V559H1182.92V511.273C1182.92 507.686 1182.01 504.881 1180.2 502.857C1178.39 500.797 1175.96 499.767 1172.91 499.767C1170.88 499.767 1169.14 500.229 1167.68 501.152C1166.23 502.075 1165.09 503.407 1164.28 505.147C1163.49 506.852 1163.1 508.893 1163.1 511.273V559H1133.7ZM1274.77 559V477.182H1304.17V559H1274.77ZM1289.47 468.659C1285.49 468.659 1282.08 467.345 1279.24 464.717C1276.4 462.089 1274.98 458.929 1274.98 455.236C1274.98 451.543 1276.4 448.382 1279.24 445.754C1282.08 443.126 1285.49 441.812 1289.47 441.812C1293.48 441.812 1296.89 443.126 1299.69 445.754C1302.53 448.382 1303.96 451.543 1303.96 455.236C1303.96 458.929 1302.53 462.089 1299.69 464.717C1296.89 467.345 1293.48 468.659 1289.47 468.659ZM1348.55 512.977V559H1319.15V477.182H1347.06V492.736H1347.91C1349.69 487.551 1352.81 483.485 1357.29 480.538C1361.8 477.59 1367.05 476.116 1373.06 476.116C1378.84 476.116 1383.87 477.448 1388.13 480.112C1392.43 482.739 1395.75 486.362 1398.09 490.978C1400.47 495.594 1401.64 500.868 1401.61 506.798V559H1372.2V512.977C1372.24 508.929 1371.21 505.751 1369.11 503.442C1367.05 501.134 1364.18 499.98 1360.48 499.98C1358.07 499.98 1355.96 500.513 1354.15 501.578C1352.37 502.608 1351 504.099 1350.04 506.053C1349.09 507.97 1348.59 510.278 1348.55 512.977Z" fill="#414143"/>
<path d="M790.544 130.17C788.493 132.233 785.167 132.233 783.115 130.17L760.759 107.685C758.708 105.622 758.708 102.277 760.759 100.214L842.153 18.3523C844.204 16.2892 847.53 16.2892 849.581 18.3523L871.938 40.8372C873.989 42.9003 873.989 46.2452 871.938 48.3084L790.544 130.17Z" fill="#414143"/>
<path d="M1033.82 224.937C1033.82 232.211 1027.93 238.107 1020.65 238.107C1013.38 238.107 1007.48 232.211 1007.48 224.937C1007.48 217.664 1013.38 211.768 1020.65 211.768C1027.93 211.768 1033.82 217.664 1033.82 224.937Z" fill="#6BC787"/>
<path d="M871.343 138.284C869.291 140.348 865.966 140.348 863.914 138.284L833.224 107.418C831.173 105.355 831.173 102.01 833.224 99.947L870.665 62.2914C872.716 60.2283 876.042 60.2283 878.093 62.2914L908.783 93.1576C910.835 95.2208 910.835 98.5657 908.783 100.629L871.343 138.284Z" fill="#414143"/>
<path d="M797.804 90.3311C794.815 94.2931 795.296 100.172 799.493 102.848C802.355 104.673 806.088 104.401 808.65 102.18L834.258 79.984C854.444 62.487 858.691 31.3566 835.979 17.2321C818.421 6.31306 797.655 0 775.404 0C760.25 0 745.785 2.9281 732.553 8.24507C729.895 9.31295 731.009 13.2412 733.876 13.2412C774.013 13.2412 806.549 36.625 806.549 65.4704C806.549 74.4704 803.382 82.9388 797.804 90.3311Z" fill="#414143"/>
<path d="M801.984 161.102C801.984 159.38 803.38 157.984 805.102 157.984H823.075C824.797 157.984 826.194 159.38 826.194 161.102V179.075C826.194 180.797 824.797 182.194 823.075 182.194H805.102C803.38 182.194 801.984 180.797 801.984 179.075V161.102Z" fill="#4E9062"/>
<path d="M831.238 161.102C831.238 159.38 832.634 157.984 834.356 157.984H852.329C854.052 157.984 855.448 159.38 855.448 161.102V179.075C855.448 180.797 854.052 182.194 852.329 182.194H834.356C832.634 182.194 831.238 180.797 831.238 179.075V161.102Z" fill="#6BC787"/>
<path d="M801.984 189.347C801.984 187.625 803.38 186.229 805.102 186.229H823.075C824.797 186.229 826.194 187.625 826.194 189.347V207.32C826.194 209.043 824.797 210.439 823.075 210.439H805.102C803.38 210.439 801.984 209.043 801.984 207.32V189.347Z" fill="#6BC787"/>
<path d="M831.238 189.347C831.238 187.625 832.634 186.229 834.356 186.229H852.329C854.052 186.229 855.448 187.625 855.448 189.347V207.32C855.448 209.043 854.052 210.439 852.329 210.439H834.356C832.634 210.439 831.238 209.043 831.238 207.32V189.347Z" fill="#4E9062"/>
<path fill-rule="evenodd" clip-rule="evenodd" d="M719.05 212.321C718.061 213.316 716.717 213.875 715.314 213.875H648.286C645.868 213.875 643.515 211.989 644.738 209.903C644.959 209.526 645.23 209.171 645.552 208.848L744.408 109.423C746.459 107.36 749.785 107.36 751.837 109.423L782.884 140.649C784.936 142.712 784.936 146.057 782.884 148.12L719.05 212.321Z" fill="#414143"/>
<path fill-rule="evenodd" clip-rule="evenodd" d="M959.303 223.957C960.288 224.923 961.613 225.464 962.992 225.464H1026.84C1031.56 225.464 1033.9 219.74 1030.53 216.436L921.005 108.992C918.928 106.955 915.561 106.955 913.484 108.992L881.558 140.311C879.481 142.349 879.481 145.652 881.558 147.689L959.303 223.957Z" fill="#4E9062"/>
<path d="M644 303.429C644 300.519 646.359 298.161 649.268 298.161H1028.55C1031.46 298.161 1033.82 300.519 1033.82 303.429V348.732C1033.82 351.642 1031.46 354 1028.55 354H654.536C648.717 354 644 349.283 644 343.464V303.429Z" fill="#4E9062"/>
<path d="M673.256 263.306H737.62V315.967H673.256V263.306Z" fill="#4E9062"/>
<path d="M942.413 263.306H1006.78V315.967H942.413V263.306Z" fill="#4E9062"/>
<path d="M644 236C644 230.181 648.717 225.464 654.536 225.464H1033.82V276.036C1033.82 278.945 1031.46 281.304 1028.55 281.304H649.268C646.358 281.304 644 278.945 644 276.036V236Z" fill="#6BC787"/>
</svg>
