<svg width="328" height="297" viewBox="0 0 328 297" fill="none" xmlns="http://www.w3.org/2000/svg">
<path d="M122.948 109.21C121.227 110.941 118.436 110.941 116.715 109.21L97.9588 90.3458C96.2378 88.6148 96.2378 85.8085 97.9588 84.0776L166.247 15.3972C167.968 13.6663 170.758 13.6663 172.479 15.3972L191.236 34.2617C192.957 35.9926 192.957 38.799 191.236 40.5299L122.948 109.21Z" fill="#414143"/>
<path d="M327.054 188.719C327.054 194.821 322.107 199.768 316.005 199.768C309.902 199.768 304.956 194.821 304.956 188.719C304.956 182.616 309.902 177.67 316.005 177.67C322.107 177.67 327.054 182.616 327.054 188.719Z" fill="#6BC787"/>
<path d="M190.737 116.018C189.016 117.749 186.225 117.749 184.504 116.018L158.756 90.122C157.035 88.3911 157.035 85.5848 158.756 83.8538L190.168 52.2614C191.889 50.5305 194.679 50.5305 196.4 52.2614L222.149 78.1577C223.87 79.8886 223.87 82.695 222.149 84.4259L190.737 116.018Z" fill="#414143"/>
<path d="M129.039 75.7862C126.531 79.1103 126.935 84.0426 130.456 86.2879C132.857 87.8191 135.989 87.5906 138.139 85.7274L159.623 67.1052C176.559 52.4255 180.122 26.3077 161.067 14.4575C146.336 5.29655 128.914 0 110.246 0C97.5314 0 85.3957 2.45662 74.2944 6.91748C72.0648 7.81341 72.9992 11.1091 75.4048 11.1091C109.078 11.1091 136.376 30.7278 136.376 54.9285C136.376 62.4794 133.719 69.5842 129.039 75.7862Z" fill="#414143"/>
<path d="M132.546 135.162C132.546 133.717 133.717 132.545 135.162 132.545H150.241C151.686 132.545 152.857 133.717 152.857 135.162V150.241C152.857 151.686 151.686 152.857 150.241 152.857H135.162C133.717 152.857 132.546 151.686 132.546 150.241V135.162Z" fill="#4E9062"/>
<path d="M157.089 135.162C157.089 133.717 158.261 132.545 159.706 132.545H174.785C176.23 132.545 177.401 133.717 177.401 135.162V150.241C177.401 151.686 176.23 152.857 174.785 152.857H159.706C158.261 152.857 157.089 151.686 157.089 150.241V135.162Z" fill="#6BC787"/>
<path d="M132.546 158.859C132.546 157.414 133.717 156.243 135.162 156.243H150.241C151.686 156.243 152.857 157.414 152.857 158.859V173.938C152.857 175.383 151.686 176.555 150.241 176.555H135.162C133.717 176.555 132.546 175.383 132.546 173.938V158.859Z" fill="#6BC787"/>
<path d="M157.089 158.859C157.089 157.414 158.261 156.243 159.706 156.243H174.785C176.23 156.243 177.401 157.414 177.401 158.859V173.938C177.401 175.383 176.23 176.555 174.785 176.555H159.706C158.261 176.555 157.089 175.383 157.089 173.938V158.859Z" fill="#4E9062"/>
<path fill-rule="evenodd" clip-rule="evenodd" d="M62.9657 178.134C62.1361 178.968 61.0081 179.438 59.8316 179.438H3.59599C1.56747 179.438 -0.40657 177.855 0.61932 176.105C0.804534 175.789 1.03205 175.491 1.30186 175.22L84.2408 91.8042C85.9618 90.0733 88.7522 90.0733 90.4732 91.8042L116.522 118.002C118.243 119.733 118.243 122.54 116.522 124.27L62.9657 178.134Z" fill="#414143"/>
<path fill-rule="evenodd" clip-rule="evenodd" d="M264.534 187.896C265.36 188.707 266.472 189.161 267.629 189.161H321.198C325.156 189.161 327.118 184.358 324.293 181.586L232.402 91.4427C230.66 89.7334 227.835 89.7334 226.092 91.4427L199.307 117.719C197.564 119.428 197.564 122.2 199.307 123.909L264.534 187.896Z" fill="#4E9062"/>
<path d="M0 254.571C0 252.131 1.97874 250.152 4.41964 250.152H322.634C325.075 250.152 327.054 252.131 327.054 254.571V292.58C327.054 295.021 325.075 297 322.634 297H8.83928C3.95748 297 0 293.043 0 288.161V254.571Z" fill="#4E9062"/>
<path d="M24.5454 220.909H78.5454V265.091H24.5454V220.909Z" fill="#4E9062"/>
<path d="M250.364 220.909H304.364V265.091H250.364V220.909Z" fill="#4E9062"/>
<path d="M0 198C0 193.118 3.95748 189.161 8.83929 189.161H327.054V231.589C327.054 234.03 325.075 236.009 322.634 236.009H4.41964C1.97874 236.009 0 234.03 0 231.589V198Z" fill="#6BC787"/>
</svg>
