<svg width="158" height="167" viewBox="0 0 158 167" fill="none" xmlns="http://www.w3.org/2000/svg">
<path d="M5.17188 158V132.545H12.0824V142.489H21.2301V132.545H28.1406V158H21.2301V148.057H12.0824V158H5.17188ZM40.7188 158.348C38.6473 158.348 36.8741 157.938 35.3991 157.118C33.9242 156.289 32.7932 155.137 32.006 153.662C31.2189 152.179 30.8253 150.46 30.8253 148.504C30.8253 146.549 31.2189 144.834 32.006 143.359C32.7932 141.875 33.9242 140.724 35.3991 139.903C36.8741 139.075 38.6473 138.661 40.7188 138.661C42.7902 138.661 44.5634 139.075 46.0384 139.903C47.5133 140.724 48.6443 141.875 49.4315 143.359C50.2186 144.834 50.6122 146.549 50.6122 148.504C50.6122 150.46 50.2186 152.179 49.4315 153.662C48.6443 155.137 47.5133 156.289 46.0384 157.118C44.5634 157.938 42.7902 158.348 40.7188 158.348ZM40.7685 153.277C41.3485 153.277 41.8498 153.082 42.2724 152.693C42.695 152.303 43.0223 151.748 43.2543 151.027C43.4863 150.306 43.6023 149.449 43.6023 148.455C43.6023 147.452 43.4863 146.594 43.2543 145.882C43.0223 145.161 42.695 144.606 42.2724 144.216C41.8498 143.827 41.3485 143.632 40.7685 143.632C40.1553 143.632 39.6291 143.827 39.19 144.216C38.7508 144.606 38.4152 145.161 38.1832 145.882C37.9512 146.594 37.8352 147.452 37.8352 148.455C37.8352 149.449 37.9512 150.306 38.1832 151.027C38.4152 151.748 38.7508 152.303 39.19 152.693C39.6291 153.082 40.1553 153.277 40.7685 153.277ZM53.3963 158V138.909H59.9091V142.538H60.108C60.5057 141.345 61.1851 140.401 62.1463 139.705C63.1075 139.009 64.2509 138.661 65.5767 138.661C66.919 138.661 68.0749 139.017 69.0444 139.729C70.0139 140.434 70.598 141.37 70.7969 142.538H70.9957C71.3189 141.37 72.0066 140.434 73.0589 139.729C74.1113 139.017 75.3459 138.661 76.7628 138.661C78.594 138.661 80.0772 139.249 81.2124 140.425C82.3558 141.602 82.9276 143.168 82.9276 145.124V158H76.0668V146.864C76.0668 146.027 75.8555 145.372 75.4329 144.9C75.0103 144.419 74.4427 144.179 73.7301 144.179C73.0258 144.179 72.4665 144.419 72.0522 144.9C71.6462 145.372 71.4432 146.027 71.4432 146.864V158H64.8807V146.864C64.8807 146.027 64.6694 145.372 64.2468 144.9C63.8242 144.419 63.2566 144.179 62.544 144.179C62.0717 144.179 61.6657 144.287 61.326 144.502C60.9863 144.718 60.7211 145.028 60.5305 145.434C60.3482 145.832 60.2571 146.308 60.2571 146.864V158H53.3963ZM95.4591 158.348C93.4207 158.348 91.6641 157.959 90.1892 157.18C88.7226 156.393 87.5915 155.266 86.7961 153.799C86.0089 152.324 85.6153 150.559 85.6153 148.504C85.6153 146.532 86.0131 144.809 86.8085 143.334C87.604 141.859 88.7267 140.711 90.1768 139.891C91.6268 139.071 93.3379 138.661 95.3099 138.661C96.7517 138.661 98.0567 138.884 99.2251 139.332C100.393 139.779 101.392 140.43 102.22 141.283C103.049 142.128 103.687 143.156 104.134 144.365C104.582 145.575 104.806 146.938 104.806 148.455V150.045H87.7531V146.267H98.4917C98.4835 145.72 98.3426 145.24 98.0692 144.825C97.804 144.403 97.4436 144.075 96.9878 143.843C96.5404 143.603 96.0308 143.483 95.4591 143.483C94.9039 143.483 94.3943 143.603 93.9303 143.843C93.4663 144.075 93.0934 144.399 92.8117 144.813C92.5383 145.227 92.3933 145.712 92.3767 146.267V150.344C92.3767 150.957 92.5051 151.504 92.762 151.984C93.0189 152.465 93.3876 152.842 93.8682 153.115C94.3488 153.389 94.9288 153.526 95.6082 153.526C96.0805 153.526 96.5114 153.459 96.9008 153.327C97.2986 153.194 97.6383 153.004 97.92 152.755C98.2017 152.498 98.4089 152.192 98.5415 151.835H104.806C104.59 153.161 104.081 154.313 103.277 155.29C102.473 156.26 101.408 157.014 100.083 157.553C98.7652 158.083 97.224 158.348 95.4591 158.348Z" fill="#414143"/>
<path d="M107.605 158V154.172L119.637 138.114H107.655V132.545H128.436V136.374L116.405 152.432H128.387V158H107.605ZM131.907 158V154.172L143.938 138.114H131.957V132.545H152.738V136.374L140.707 152.432H152.688V158H131.907Z" fill="#6BC787"/>
<path d="M62.0489 44.0592C61.2908 44.7971 60.0937 44.8284 59.3752 44.1289L51.544 36.5063C50.8255 35.8069 50.8576 34.6417 51.6157 33.9038L81.6962 4.62414C82.4543 3.88622 83.6514 3.855 84.3699 4.55442L92.201 12.177C92.9196 12.8765 92.8875 14.0417 92.1294 14.7796L62.0489 44.0592Z" fill="#414143"/>
<path d="M147.194 76.2562C147.194 78.722 145.128 80.7209 142.581 80.7209C140.033 80.7209 137.968 78.722 137.968 76.2562C137.968 73.7905 140.033 71.7916 142.581 71.7916C145.128 71.7916 147.194 73.7905 147.194 76.2562Z" fill="#6BC787"/>
<path d="M90.2799 46.8799C89.5613 47.5794 88.3963 47.5793 87.6778 46.8799L76.9276 36.4159C76.209 35.7165 76.209 34.5825 76.9276 33.8831L90.0424 21.1175C90.7609 20.4181 91.9259 20.4181 92.6445 21.1175L103.395 31.5815C104.113 32.2809 104.113 33.4149 103.395 34.1143L90.2799 46.8799Z" fill="#414143"/>
<path d="M64.5205 30.6232C63.4734 31.9664 63.642 33.9594 65.112 34.8667C66.1144 35.4854 67.4223 35.393 68.3197 34.6402L77.2896 27.1155C84.3604 21.1838 85.8481 10.6302 77.8924 5.84188C71.7421 2.1402 64.4683 0 56.674 0C51.3657 0 46.2989 0.992657 41.6639 2.79517C40.7331 3.15719 41.1232 4.48891 42.1276 4.48891C56.1866 4.48891 67.5837 12.4163 67.5837 22.1952C67.5837 25.2463 66.4742 28.1171 64.5205 30.6232Z" fill="#414143"/>
<path d="M65.9844 54.6153C65.9844 54.0314 66.4734 53.5581 67.0767 53.5581H73.3725C73.9758 53.5581 74.4648 54.0314 74.4648 54.6153V60.7084C74.4648 61.2923 73.9758 61.7656 73.3725 61.7656H67.0767C66.4734 61.7656 65.9844 61.2923 65.9844 60.7084V54.6153Z" fill="#4E9062"/>
<path d="M76.2317 54.6153C76.2317 54.0314 76.7207 53.5581 77.324 53.5581H83.6198C84.2231 53.5581 84.7121 54.0314 84.7121 54.6153V60.7084C84.7121 61.2923 84.2231 61.7656 83.6198 61.7656H77.324C76.7207 61.7656 76.2317 61.2923 76.2317 60.7084V54.6153Z" fill="#6BC787"/>
<path d="M65.9844 64.1907C65.9844 63.6068 66.4734 63.1335 67.0767 63.1335H73.3725C73.9758 63.1335 74.4648 63.6068 74.4648 64.1907V70.2838C74.4648 70.8677 73.9758 71.341 73.3725 71.341H67.0767C66.4734 71.341 65.9844 70.8677 65.9844 70.2838V64.1907Z" fill="#6BC787"/>
<path d="M76.2317 64.1907C76.2317 63.6068 76.7207 63.1335 77.324 63.1335H83.6198C84.2231 63.1335 84.7121 63.6068 84.7121 64.1907V70.2838C84.7121 70.8677 84.2231 71.341 83.6198 71.341H77.324C76.7207 71.341 76.2317 70.8677 76.2317 70.2838V64.1907Z" fill="#4E9062"/>
<path fill-rule="evenodd" clip-rule="evenodd" d="M36.934 71.9793C36.5876 72.3164 36.1167 72.506 35.6255 72.506H12.1465C11.2995 72.506 10.4754 71.8664 10.9037 71.1593C10.981 71.0316 11.076 70.9113 11.1887 70.8016L45.8166 37.0957C46.5351 36.3962 47.7001 36.3962 48.4187 37.0957L59.2942 47.6816C60.0127 48.381 60.0127 49.515 59.2942 50.2144L36.934 71.9793Z" fill="#414143"/>
<path fill-rule="evenodd" clip-rule="evenodd" d="M121.091 75.9238C121.436 76.2514 121.9 76.4348 122.383 76.4348H144.749C146.401 76.4348 147.221 74.4941 146.041 73.3741L107.676 36.9496C106.948 36.2589 105.769 36.2589 105.041 36.9496L93.858 47.5671C93.1305 48.2578 93.1305 49.3776 93.858 50.0683L121.091 75.9238Z" fill="#4E9062"/>
<path d="M10.6451 102.866C10.6451 101.879 11.4713 101.08 12.4904 101.08H145.348C146.368 101.08 147.194 101.879 147.194 102.866V118.224C147.194 119.21 146.368 120.01 145.348 120.01H14.3356C12.2974 120.01 10.6451 118.411 10.6451 116.438V102.866Z" fill="#4E9062"/>
<path d="M20.8931 89.2635H43.4387V107.116H20.8931V89.2635Z" fill="#4E9062"/>
<path d="M115.175 89.2635H137.72V107.116H115.175V89.2635Z" fill="#4E9062"/>
<path d="M10.6451 80.0066C10.6451 78.034 12.2974 76.4348 14.3356 76.4348H147.194V93.5791C147.194 94.5654 146.368 95.365 145.348 95.365H12.4904C11.4713 95.365 10.6451 94.5654 10.6451 93.5791V80.0066Z" fill="#6BC787"/>
</svg>
