<svg width="114" height="107" viewBox="0 0 114 107" fill="none" xmlns="http://www.w3.org/2000/svg">
<path d="M0 22C0 9.84973 9.84974 0 22 0H82C94.1503 0 104 9.84974 104 22V63C104 75.1503 94.1503 85 82 85H22C9.84973 85 0 75.1503 0 63V22Z" fill="#CDF3D9"/>
<path fill-rule="evenodd" clip-rule="evenodd" d="M32 10C19.8497 10 10 19.8497 10 32V73C10 85.1503 19.8497 95 32 95H32.9149L44 107L55.0851 95H92C104.15 95 114 85.1503 114 73V32C114 19.8497 104.15 10 92 10H32Z" fill="#6BC787"/>
<ellipse cx="45.3447" cy="56.068" rx="11.3447" ry="11.068" fill="#CDF3D9"/>
<ellipse cx="68.8641" cy="56.3447" rx="8.30097" ry="8.02427" fill="#CDF3D9"/>
<circle cx="86.0194" cy="56.068" r="4.98058" fill="#CDF3D9"/>
</svg>
