<svg width="16" height="20" viewBox="0 0 16 20" fill="none" xmlns="http://www.w3.org/2000/svg">
<path fill-rule="evenodd" clip-rule="evenodd" d="M8.03312 0.833313H7.96773C4.87935 0.833313 2.04767 3.07416 1.77295 6.04086C1.75463 6.25309 1.74214 6.46995 1.73408 6.70356L1.72279 7.24974L1.72056 7.73944L1.73435 7.68361C1.60689 8.30511 1.31315 8.88158 0.8835 9.35261L0.821926 9.43183C0.454044 9.99067 0.242666 10.6375 0.209947 11.3055L0.209172 11.5239C0.19039 12.4024 0.491428 13.2717 1.05775 13.9621C1.82575 14.773 2.81989 15.2567 3.88689 15.3593C6.61584 15.6557 9.37684 15.6557 12.1134 15.3586C13.1731 15.261 14.1702 14.7759 14.906 13.995C15.4616 13.3303 15.7648 12.5327 15.7908 11.7068L15.7917 11.3371C15.7613 10.6398 15.5486 9.99235 15.1763 9.43593L15.1197 9.36332L14.9816 9.20084C14.6711 8.81312 14.4444 8.3665 14.3155 7.88879L14.2746 7.71727L14.2662 7.53738C14.2636 7.45648 14.2624 7.36676 14.262 7.25471L14.2618 6.6377C14.2597 6.40168 14.2527 6.23384 14.2364 6.0449C13.9523 3.0726 11.1198 0.833313 8.03312 0.833313ZM7.96773 2.11238H8.03312C10.5058 2.11238 12.7615 3.89567 12.9782 6.16214C12.991 6.31093 12.9967 6.45289 12.9984 6.66377L13.0009 7.49302C13.0037 7.62565 13.0089 7.73593 13.0178 7.86003L13.0296 7.94498L13.0891 8.19778C13.2653 8.86653 13.5819 9.4904 14.0177 10.0283L14.1441 10.1765L14.1301 10.1532C14.3718 10.5145 14.5095 10.9337 14.5287 11.3659L14.5281 11.5158C14.5427 12.1172 14.3433 12.6886 13.966 13.1411C13.4675 13.6684 12.7548 14.0152 11.9888 14.0858C9.33165 14.3742 6.66102 14.3742 4.01405 14.0868C3.2396 14.0122 2.52642 13.6652 1.99923 13.1103C1.65747 12.691 1.46022 12.1214 1.4726 11.5376L1.47275 11.3371L1.48876 11.1625C1.52733 10.8704 1.62495 10.5743 1.77625 10.3016L1.85298 10.1746C2.41549 9.54198 2.80152 8.77268 2.97155 7.94359L2.98474 7.8136L2.99072 6.97094L3.00544 6.54341C3.01211 6.40855 3.02066 6.2804 3.03138 6.15619C3.24071 3.89577 5.49431 2.11238 7.96773 2.11238ZM1.85298 10.1746C1.83938 10.19 1.82567 10.2052 1.81186 10.2203L1.85702 10.168L1.85298 10.1746ZM10.3906 17.0497C10.1188 16.8283 9.72107 16.8719 9.50235 17.1471C9.40756 17.2664 9.29781 17.3734 9.17569 17.4655C8.76153 17.7904 8.24468 17.935 7.73087 17.8738C7.21781 17.8127 6.75144 17.5516 6.43499 17.1495C6.21757 16.8732 5.82008 16.8277 5.54717 17.0478C5.27427 17.2679 5.22929 17.6703 5.44672 17.9465C5.97143 18.6132 6.74031 19.0437 7.5832 19.1441C8.42535 19.2444 9.27335 19.0071 9.94034 18.4838C10.1383 18.3345 10.3252 18.1523 10.4869 17.9489C10.7056 17.6737 10.6625 17.2711 10.3906 17.0497Z" fill="#BEC2C8"/>
</svg>
