<svg width="15" height="15" viewBox="0 0 15 15" fill="none" xmlns="http://www.w3.org/2000/svg">
<path d="M10.625 12.8125H4.375C2.5 12.8125 1.25 11.875 1.25 9.6875V5.3125C1.25 3.125 2.5 2.1875 4.375 2.1875H10.625C12.5 2.1875 13.75 3.125 13.75 5.3125V9.6875C13.75 11.875 12.5 12.8125 10.625 12.8125Z" stroke="#0000" stroke-width="1" stroke-miterlimit="10" stroke-linecap="round" stroke-linejoin="round"/>
<path d="M7.5 9.375C8.53553 9.375 9.375 8.53553 9.375 7.5C9.375 6.46447 8.53553 5.625 7.5 5.625C6.46447 5.625 5.625 6.46447 5.625 7.5C5.625 8.53553 6.46447 9.375 7.5 9.375Z" stroke="#0000" stroke-width="1" stroke-miterlimit="10" stroke-linecap="round" stroke-linejoin="round"/>
<path d="M3.4375 5.9375V9.0625" stroke="#0000" stroke-width="1" stroke-miterlimit="10" stroke-linecap="round" stroke-linejoin="round"/>
<path d="M11.5625 5.9375V9.0625" stroke="#0000" stroke-width="1" stroke-miterlimit="10" stroke-linecap="round" stroke-linejoin="round"/>
</svg>
