<svg width="4" height="12" viewBox="0 0 4 12" fill="none" xmlns="http://www.w3.org/2000/svg">
<path fill-rule="evenodd" clip-rule="evenodd" d="M2.00023 2.71839C2.65923 2.71839 3.19623 2.18139 3.19623 1.52039C3.19623 0.860388 2.65923 0.322388 2.00023 0.322388C1.34023 0.322388 0.803228 0.860388 0.803228 1.52039C0.803228 2.18139 1.34023 2.71839 2.00023 2.71839ZM2.00023 7.19789C2.65923 7.19789 3.19623 6.65989 3.19623 5.99989C3.19623 5.33889 2.65923 4.80189 2.00023 4.80189C1.34023 4.80189 0.803228 5.33889 0.803228 5.99989C0.803228 6.65989 1.34023 7.19789 2.00023 7.19789ZM3.19623 10.4789C3.19623 11.1399 2.65923 11.6769 2.00023 11.6769C1.34023 11.6769 0.803228 11.1399 0.803228 10.4789C0.803228 9.81889 1.34023 9.28089 2.00023 9.28089C2.65923 9.28089 3.19623 9.81889 3.19623 10.4789Z" fill="#000"/>
</svg>
