<svg width="20" height="20" viewBox="0 0 20 20" fill="none" xmlns="http://www.w3.org/2000/svg">
<path fill-rule="evenodd" clip-rule="evenodd" d="M10 0.750244C15.108 0.750244 19.25 4.89224 19.25 10.0002C19.25 15.1082 15.108 19.2502 10 19.2502C4.891 19.2502 0.75 15.1082 0.75 10.0002C0.75 4.89224 4.891 0.750244 10 0.750244Z" stroke="#200E32" stroke-width="1.5" stroke-linecap="round" stroke-linejoin="round"/>
<path d="M5.52027 11.1975C4.85927 11.1975 4.32227 10.6605 4.32227 10.0005C4.32227 9.34049 4.85927 8.80249 5.52027 8.80249C6.18127 8.80249 6.71827 9.34049 6.71827 10.0005C6.71827 10.6605 6.18127 11.1975 5.52027 11.1975Z" fill="#200E32"/>
<path d="M9.99976 11.1975C9.33876 11.1975 8.80176 10.6605 8.80176 10.0005C8.80176 9.34049 9.33876 8.80249 9.99976 8.80249C10.6608 8.80249 11.1978 9.34049 11.1978 10.0005C11.1978 10.6605 10.6608 11.1975 9.99976 11.1975Z" fill="#200E32"/>
<path d="M14.4788 11.1975C13.8178 11.1975 13.2808 10.6605 13.2808 10.0005C13.2808 9.34049 13.8178 8.80249 14.4788 8.80249C15.1398 8.80249 15.6768 9.34049 15.6768 10.0005C15.6768 10.6605 15.1398 11.1975 14.4788 11.1975Z" fill="#200E32"/>
</svg>
