<svg width="21" height="21" viewBox="0 0 21 21" fill="none" xmlns="http://www.w3.org/2000/svg">
<path fill-rule="evenodd" clip-rule="evenodd" d="M10.0953 0.083313C4.56586 0.083313 0.0833282 4.46685 0.0833282 9.87421C0.0833282 15.2816 4.56586 19.6651 10.0953 19.6651C12.4603 19.6651 14.6337 18.8633 16.3469 17.5224L19.6011 20.6965L19.6877 20.7694C19.9898 20.988 20.4181 20.9631 20.6915 20.6951C20.9923 20.4003 20.9916 19.9228 20.6901 19.6287L17.4741 16.492C19.1093 14.7493 20.1074 12.4257 20.1074 9.87421C20.1074 4.46685 15.6248 0.083313 10.0953 0.083313ZM10.0954 1.59137C14.7731 1.59137 18.5653 5.29973 18.5653 9.87421C18.5653 14.4487 14.7731 18.157 10.0954 18.157C5.41755 18.157 1.62545 14.4487 1.62545 9.87421C1.62545 5.29973 5.41755 1.59137 10.0954 1.59137Z" fill="#BEC2C8"/>
</svg>
