<svg width="20" height="21" viewBox="0 0 20 21" fill="none" xmlns="http://www.w3.org/2000/svg">
<path d="M19.3011 10.878C19.3048 10.1612 18.9114 9.50559 18.2783 9.16479L3.52369 1.20788C2.86274 0.841126 2.0874 0.892888 1.47065 1.32115C0.842591 1.75663 0.527417 2.78407 0.709725 3.52293L2.1262 9.25829C2.27161 9.84641 2.8022 10.2572 3.40887 10.2498L11.5844 10.1605C12.003 10.1488 12.3452 10.4857 12.3401 10.9044C12.342 11.316 12.0101 11.6531 11.5915 11.6648L3.40814 11.7479C2.80146 11.7538 2.2748 12.1747 2.13497 12.7659L0.760109 18.546C0.593033 19.229 0.794927 19.9081 1.27971 20.3853C1.33674 20.4415 1.4009 20.5046 1.465 20.5536C2.09169 21.0293 2.90798 21.0842 3.60161 20.7077L18.2803 12.5994C18.9103 12.259 19.2974 11.5948 19.3011 10.878Z" fill="#6BC787"/>
</svg>
