<svg width="12" height="14" viewBox="0 0 12 14" fill="none" xmlns="http://www.w3.org/2000/svg">
<path fill-rule="evenodd" clip-rule="evenodd" d="M6.00282 0.333336C4.04681 0.333336 2.46114 1.92576 2.46114 3.89012C2.46114 5.85448 4.04681 7.4469 6.00282 7.4469C7.95884 7.4469 9.5445 5.85448 9.5445 3.89012C9.5445 1.92576 7.95884 0.333336 6.00282 0.333336ZM6.00282 1.29845C7.42808 1.29845 8.58349 2.45878 8.58349 3.89012C8.58349 5.32146 7.42808 6.48179 6.00282 6.48179C4.57756 6.48179 3.42216 5.32146 3.42216 3.89012C3.42216 2.45878 4.57756 1.29845 6.00282 1.29845ZM4.55333 8.88059C4.03485 8.91659 3.51077 8.9906 2.99382 9.10138C1.99608 9.30691 1.19786 9.71754 0.858119 10.3999C0.729978 10.6668 0.665552 10.9525 0.66664 11.2418C0.666255 11.529 0.730159 11.8151 0.853704 12.0769C1.17992 12.7514 1.88516 13.1331 2.83745 13.3447L3.00804 13.3803C3.51095 13.4938 4.03519 13.5702 4.56294 13.606C4.60788 13.6192 4.71501 13.6315 4.83193 13.6374L4.9281 13.641C4.97755 13.6422 5.03368 13.6425 5.1173 13.6425C5.87586 13.6842 6.66224 13.672 7.44497 13.6054C7.86209 13.5769 8.28202 13.5223 8.69845 13.4424L9.01 13.3777C10.0383 13.1748 10.8083 12.7891 11.1457 12.0776C11.3958 11.5494 11.3958 10.9365 11.1458 10.4085C10.8093 9.69884 10.0491 9.31626 9.0022 9.1006C8.59147 9.01291 8.17409 8.94803 7.75374 8.9066L7.44643 8.88059C6.48391 8.79568 5.51584 8.79568 4.55333 8.88059ZM7.36233 9.842L7.37078 9.84267C7.85321 9.87663 8.33269 9.94434 8.80573 10.0453C9.58335 10.2055 10.1111 10.4711 10.278 10.8232C10.4037 11.0887 10.4037 11.3972 10.2779 11.6629C10.1219 11.9919 9.64795 12.2461 8.96294 12.4014L8.81295 12.4332C8.33061 12.5408 7.85271 12.6102 7.37166 12.6431C6.62524 12.7066 5.88325 12.7181 5.14313 12.6781L4.88073 12.6736C4.80789 12.6698 4.7465 12.6628 4.6896 12.6514C4.2391 12.6174 3.83373 12.5636 3.44013 12.4856L3.20512 12.4358C2.42509 12.2829 1.89272 12.0162 1.72011 11.6593C1.65971 11.5313 1.62745 11.3869 1.62764 11.2406C1.6271 11.0952 1.65894 10.954 1.72074 10.8252C1.88857 10.4883 2.45275 10.198 3.19066 10.046C3.66711 9.94393 4.14636 9.87625 4.62858 9.8427C5.54397 9.76203 6.45577 9.76203 7.36233 9.842Z" fill="#E6EAFF"/>
</svg>
